{"title":"Oggi, Domani, Dopodomani (1965) - DVDRip x265 HEVC - ITA (ENG SU","uid":15770329,"size":787220354,"categoryP":"video","categoryS":"movies_dvdr","magnet":"?xt=urn:btih:067f7336e1000d6302a0b4a54979c015539468f1&amp;dn=Oggi%2C+Domani%2C+Dopodomani+%281965%29+-+DVDRip+x265+HEVC+-+ITA+%28ENG+SU&amp;tr=udp%3A%2F%2Ftracker.leechers-paradise.org%3A6969&amp;tr=udp%3A%2F%2Fzer0day.ch%3A1337&amp;tr=udp%3A%2F%2Fopen.demonii.com%3A1337&amp;tr=udp%3A%2F%2Ftracker.coppersurfer.tk%3A6969&amp;tr=udp%3A%2F%2Fexodus.desync.com%3A6969","seeders":2,"leechers":0,"uploader":"BRSHNKV","files":2,"time":1473197122,"description":"Format                                   : MPEG-4\r\nFormat profile                           : Base Media / Version 2\r\nCodec ID                                 : mp42\r\nFile size                                : 751 MiB\r\nDuration                                 : 1h 23mn\r\nOverall bit rate mode                    : Variable\r\nOverall bit rate                         : 1 254 Kbps\r\nMovie name                               : Oggi, Domani, Dopodomani DVDRip x265 HEVC [BRSHNKV]\r\nEncoded date                             : UTC 2016-09-05 11:33:38\r\nTagged date                              : UTC 2016-09-05 11:33:38\r\nWriting application                      : HandBrake 20160211184813-ffd8cb1-master 2016021301\r\n\r\nVideo\r\nID                                       : 1\r\nFormat                                   : HEVC\r\nFormat/Info                              : High Efficiency Video Coding\r\nFormat profile                           : Main   @Main\r\nCodec ID                                 : hev1\r\nCodec ID/Info                            : High Efficiency Video Coding\r\nDuration                                 : 1h 23mn\r\nBit rate                                 : 1 102 Kbps\r\nWidth                                    : 712 pixels\r\nHeight                                   : 552 pixels\r\nDisplay aspect ratio                     : 1.85:1\r\nFrame rate mode                          : Constant\r\nFrame rate                               : 50.000 fps\r\nColor space                              : YUV\r\nChroma subsampling                       : 4:2:0\r\nBit depth                                : 10 bits\r\nBits/(Pixel*Frame)                       : 0.056\r\nStream size                              : 659 MiB (88%)\r\nWriting library                          : x265 1.9:[Mac OS X][clang 7.0.2][64 bit] 10bit\r\nEncoded date                             : UTC 2016-09-05 11:33:38\r\nTagged date                              : UTC 2016-09-05 11:33:38\r\nColor range                              : Limited\r\nColor primaries                          : BT.601 NTSC\r\nTransfer characteristics                 : BT.709\r\nMatrix coefficients                      : BT.601\r\n\r\nAudio\r\nID                                       : 2\r\nFormat                                   : AAC\r\nFormat/Info                              : Advanced Audio Codec\r\nFormat profile                           : LC\r\nCodec ID                                 : 40\r\nDuration                                 : 1h 23mn\r\nBit rate mode                            : Variable\r\nBit rate                                 : 144 Kbps\r\nChannel(s)                               : 2 channels\r\nChannel positions                        : Front: L R\r\nSampling rate                            : 48.0 KHz\r\nCompression mode                         : Lossy\r\nStream size                              : 86.1 MiB (11%)\r\nTitle                                    : Stereo / Stereo\r\nEncoded date                             : UTC 2016-09-05 11:33:38\r\nTagged date                              : UTC 2016-09-05 11:33:38","torrent":{"xt":"urn:btih:067f7336e1000d6302a0b4a54979c015539468f1","amp;dn":"Oggi%2C+Domani%2C+Dopodomani+%281965%29+-+DVDRip+x265+HEVC+-+ITA+%28ENG+SU","amp;tr":["udp%3A%2F%2Ftracker.leechers-paradise.org%3A6969","udp%3A%2F%2Fzer0day.ch%3A1337","udp%3A%2F%2Fopen.demonii.com%3A1337","udp%3A%2F%2Ftracker.coppersurfer.tk%3A6969","udp%3A%2F%2Fexodus.desync.com%3A6969"],"infoHash":"067f7336e1000d6302a0b4a54979c015539468f1","infoHashBuffer":{"type":"Buffer","data":[6,127,115,54,225,0,13,99,2,160,180,165,73,121,192,21,83,148,104,241]},"announce":[],"urlList":[]}}